{"accessors" : [{"bufferView" : 0, "byteOffset" : 0, "componentType" : 5123, "count" : 201, "type" : "SCALAR", "max" : [198], "min" : [0]}, {"bufferView" : 1, "byteOffset" : 0, "componentType" : 5126, "count" : 199, "type" : "VEC3", "max" : [0.32888808846473694, -0.1405791938304901, 0.38284510374069214], "min" : [-0.3349181115627289, -0.3054659068584442, -0.3471548855304718], "name" : "POSITION"}, {"bufferView" : 1, "byteOffset" : 12, "componentType" : 5126, "count" : 199, "type" : "VEC3", "max" : [1.0000026226043701, 0.999997615814209, 0.9999959468841553], "min" : [-1.0000026226043701, -0.999997615814209, -0.9999959468841553], "name" : "NORMAL"}, {"bufferView" : 0, "byteOffset" : 404, "componentType" : 5123, "count" : 81, "type" : "SCALAR", "max" : [77], "min" : [0]}, {"bufferView" : 2, "byteOffset" : 0, "componentType" : 5126, "count" : 78, "type" : "VEC3", "max" : [0.3283894956111908, -0.1405791938304901, 0.38238829374313354], "min" : [-0.3347660005092621, -0.30506739020347595, -0.34655699133872986], "name" : "POSITION"}, {"bufferView" : 2, "byteOffset" : 12, "componentType" : 5126, "count" : 78, "type" : "VEC3", "max" : [0.0001446334208594635, 0.999997615814209, 0.0036886599846184254], "min" : [-1.0000026226043701, -0.7760151028633118, -0.004028731025755405], "name" : "NORMAL"}, {"bufferView" : 0, "byteOffset" : 568, "componentType" : 5123, "count" : 744, "type" : "SCALAR", "max" : [731], "min" : [0]}, {"bufferView" : 3, "byteOffset" : 0, "componentType" : 5126, "count" : 732, "type" : "VEC3", "max" : [0.4187462031841278, 0.2759605944156647, 0.3832069933414459], "min" : [-0.405267596244812, -0.2874118983745575, -0.436532199382782], "name" : "POSITION"}, {"bufferView" : 3, "byteOffset" : 12, "componentType" : 5126, "count" : 732, "type" : "VEC3", "max" : [1.0000026226043701, 0.999997615814209, 1.0000044107437134], "min" : [-0.7459720969200134, -0.999997615814209, -0.9999958872795105], "name" : "NORMAL"}, {"bufferView" : 0, "byteOffset" : 2056, "componentType" : 5123, "count" : 90, "type" : "SCALAR", "max" : [89], "min" : [0]}, {"bufferView" : 4, "byteOffset" : 0, "componentType" : 5126, "count" : 90, "type" : "VEC3", "max" : [-0.2506672143936157, 0.14542700350284576, 0.3743591904640198], "min" : [-0.3184959888458252, -0.2873165011405945, -0.33437681198120117], "name" : "POSITION"}, {"bufferView" : 4, "byteOffset" : 12, "componentType" : 5126, "count" : 90, "type" : "VEC3", "max" : [-0.6304981112480164, 0.7761946320533752, 0.0016967625124379992], "min" : [-1.0000026226043701, -0.7760151028633118, -0.0802459642291069], "name" : "NORMAL"}, {"bufferView" : 0, "byteOffset" : 2236, "componentType" : 5123, "count" : 282, "type" : "SCALAR", "max" : [276], "min" : [0]}, {"bufferView" : 5, "byteOffset" : 0, "componentType" : 5126, "count" : 277, "type" : "VEC3", "max" : [0.31529930233955383, 0.008581221103668213, 0.33058589696884155], "min" : [-0.3149360120296478, -0.14127129316329956, -0.35316941142082214], "name" : "POSITION"}, {"bufferView" : 5, "byteOffset" : 12, "componentType" : 5126, "count" : 277, "type" : "VEC3", "max" : [0.9967771172523499, 0.9999498128890991, 0.996725857257843], "min" : [-0.9967771172523499, -0.9999498128890991, -0.9967261552810669], "name" : "NORMAL"}, {"bufferView" : 0, "byteOffset" : 2800, "componentType" : 5123, "count" : 201, "type" : "SCALAR", "max" : [198], "min" : [0]}, {"bufferView" : 6, "byteOffset" : 0, "componentType" : 5126, "count" : 199, "type" : "VEC3", "max" : [0.2915267050266266, 0.14556899666786194, 0.3286553919315338], "min" : [-0.29044029116630554, 0.0010108950082212687, -0.3113445043563843], "name" : "POSITION"}, {"bufferView" : 6, "byteOffset" : 12, "componentType" : 5126, "count" : 199, "type" : "VEC3", "max" : [1.0000026226043701, 0.999997615814209, 0.9999959468841553], "min" : [-1.0000026226043701, -0.999997615814209, -0.9999959468841553], "name" : "NORMAL"}, {"bufferView" : 0, "byteOffset" : 3204, "componentType" : 5123, "count" : 18, "type" : "SCALAR", "max" : [16], "min" : [0]}, {"bufferView" : 7, "byteOffset" : 0, "componentType" : 5126, "count" : 17, "type" : "VEC3", "max" : [0.2910897135734558, 0.14556899666786194, 0.3282549977302551], "min" : [-0.26673638820648193, 0.14313140511512756, -0.3108203113079071], "name" : "POSITION"}, {"bufferView" : 7, "byteOffset" : 12, "componentType" : 5126, "count" : 17, "type" : "VEC3", "max" : [0.0001446334208594635, 0.999997615814209, 0.0036886599846184254], "min" : [0.0001446334208594635, 0.999997615814209, 0.0036886599846184254], "name" : "NORMAL"}, {"bufferView" : 0, "byteOffset" : 3240, "componentType" : 5123, "count" : 18, "type" : "SCALAR", "max" : [13], "min" : [0]}, {"bufferView" : 8, "byteOffset" : 0, "componentType" : 5126, "count" : 14, "type" : "VEC3", "max" : [0.43278801441192627, 0.29170939326286316, 0.4059560000896454], "min" : [-0.4120728075504303, 0.28249889612197876, -0.43212610483169556], "name" : "POSITION"}, {"bufferView" : 8, "byteOffset" : 12, "componentType" : 5126, "count" : 14, "type" : "VEC3", "max" : [0.0020869909785687923, 0.9999389052391052, 0.011255878023803234], "min" : [0.0020869909785687923, 0.9999389052391052, 0.011255878023803234], "name" : "NORMAL"}, {"bufferView" : 0, "byteOffset" : 3276, "componentType" : 5123, "count" : 207, "type" : "SCALAR", "max" : [204], "min" : [0]}, {"bufferView" : 9, "byteOffset" : 0, "componentType" : 5126, "count" : 205, "type" : "VEC3", "max" : [0.4347214102745056, 0.29170939326286316, 0.4069415032863617], "min" : [-0.42809540033340454, 0.14035950601100922, -0.45112770795822144], "name" : "POSITION"}, {"bufferView" : 9, "byteOffset" : 12, "componentType" : 5126, "count" : 205, "type" : "VEC3", "max" : [0.8789235949516296, 0.9999529719352722, 0.7459084391593933], "min" : [-0.7459724545478821, -0.9999389052391052, -0.7459083795547485], "name" : "NORMAL"}, {"bufferView" : 0, "byteOffset" : 3692, "componentType" : 5123, "count" : 78, "type" : "SCALAR", "max" : [76], "min" : [0]}, {"bufferView" : 10, "byteOffset" : 0, "componentType" : 5126, "count" : 77, "type" : "VEC3", "max" : [0.41851571202278137, 0.29128068685531616, 0.3819631040096283], "min" : [-0.405267596244812, 0.14603489637374878, -0.436532199382782], "name" : "POSITION"}, {"bufferView" : 10, "byteOffset" : 12, "componentType" : 5126, "count" : 77, "type" : "VEC3", "max" : [-0.002085136016830802, 0.7822354435920715, -0.011254478245973587], "min" : [-0.6659833192825317, -0.9999389052391052, -0.7459083795547485], "name" : "NORMAL"}], "asset" : {"generator" : "Aspose.3D 23.2", "version" : "2.0"}, "buffers" : [{"uri" : "data:application/octet-stream;base64,", "byteLength" : 49972}], "bufferViews" : [{"buffer" : 0, "byteOffset" : 0, "byteLength" : 3848, "target" : 34963}, {"buffer" : 0, "byteOffset" : 3852, "byteLength" : 4824, "byteStride" : 24, "target" : 34962}, {"buffer" : 0, "byteOffset" : 8680, "byteLength" : 1944, "byteStride" : 24, "target" : 34962}, {"buffer" : 0, "byteOffset" : 10628, "byteLength" : 17856, "byteStride" : 24, "target" : 34962}, {"buffer" : 0, "byteOffset" : 28488, "byteLength" : 2160, "byteStride" : 24, "target" : 34962}, {"buffer" : 0, "byteOffset" : 30652, "byteLength" : 6768, "byteStride" : 24, "target" : 34962}, {"buffer" : 0, "byteOffset" : 37424, "byteLength" : 4824, "byteStride" : 24, "target" : 34962}, {"buffer" : 0, "byteOffset" : 42252, "byteLength" : 432, "byteStride" : 24, "target" : 34962}, {"buffer" : 0, "byteOffset" : 42688, "byteLength" : 432, "byteStride" : 24, "target" : 34962}, {"buffer" : 0, "byteOffset" : 43124, "byteLength" : 4968, "byteStride" : 24, "target" : 34962}, {"buffer" : 0, "byteOffset" : 48096, "byteLength" : 1872, "byteStride" : 24, "target" : 34962}], "materials" : [{"name" : "mat10", "pbrMetallicRoughness" : {"baseColorFactor" : [0.07, 0.44, 0.08, 1], "metallicFactor" : 0, "roughnessFactor" : 1}, "emissiveFactor" : [0, 0, 0], "alphaMode" : "OPAQUE", "doubleSided" : false}, {"name" : "mat23", "pbrMetallicRoughness" : {"baseColorFactor" : [0.01, 0.01, 0.01, 1], "metallicFactor" : 0, "roughnessFactor" : 1}, "emissiveFactor" : [0, 0, 0], "alphaMode" : "OPAQUE", "doubleSided" : false}, {"name" : "mat21", "pbrMetallicRoughness" : {"baseColorFactor" : [1, 1, 1, 1], "metallicFactor" : 0, "roughnessFactor" : 1}, "emissiveFactor" : [0, 0, 0], "alphaMode" : "OPAQUE", "doubleSided" : false}, {"name" : "mat4", "pbrMetallicRoughness" : {"baseColorFactor" : [0, 0.52, 0.66, 1], "metallicFactor" : 0, "roughnessFactor" : 1}, "emissiveFactor" : [0, 0, 0], "alphaMode" : "OPAQUE", "doubleSided" : false}, {"name" : "mat8", "pbrMetallicRoughness" : {"baseColorFactor" : [0.91, 0.05, 0.03, 1], "metallicFactor" : 0, "roughnessFactor" : 1}, "emissiveFactor" : [0, 0, 0], "alphaMode" : "OPAQUE", "doubleSided" : false}, {"name" : "mat5", "pbrMetallicRoughness" : {"baseColorFactor" : [0, 0.34, 0.79, 1], "metallicFactor" : 0, "roughnessFactor" : 1}, "emissiveFactor" : [0, 0, 0], "alphaMode" : "OPAQUE", "doubleSided" : false}, {"name" : "mat3", "pbrMetallicRoughness" : {"baseColorFactor" : [0.22, 0.74, 0.83, 1], "metallicFactor" : 0, "roughnessFactor" : 1}, "emissiveFactor" : [0, 0, 0], "alphaMode" : "OPAQUE", "doubleSided" : false}, {"name" : "mat17", "pbrMetallicRoughness" : {"baseColorFactor" : [0.06, 0.1, 0.13, 1], "metallicFactor" : 0, "roughnessFactor" : 1}, "emissiveFactor" : [0, 0, 0], "alphaMode" : "OPAQUE", "doubleSided" : false}, {"name" : "mat16", "pbrMetallicRoughness" : {"baseColorFactor" : [0.19, 0.28, 0.34, 1], "metallicFactor" : 0, "roughnessFactor" : 1}, "emissiveFactor" : [0, 0, 0], "alphaMode" : "OPAQUE", "doubleSided" : false}, {"name" : "mat1", "pbrMetallicRoughness" : {"baseColorFactor" : [0.34, 0.02, 0.44, 1], "metallicFactor" : 0, "roughnessFactor" : 1}, "emissiveFactor" : [0, 0, 0], "alphaMode" : "OPAQUE", "doubleSided" : false}], "meshes" : [{"primitives" : [{"attributes" : {"POSITION" : 1, "NORMAL" : 2}, "indices" : 0, "material" : 0, "mode" : 4}, {"attributes" : {"POSITION" : 4, "NORMAL" : 5}, "indices" : 3, "material" : 1, "mode" : 4}, {"attributes" : {"POSITION" : 7, "NORMAL" : 8}, "indices" : 6, "material" : 2, "mode" : 4}, {"attributes" : {"POSITION" : 10, "NORMAL" : 11}, "indices" : 9, "material" : 3, "mode" : 4}, {"attributes" : {"POSITION" : 13, "NORMAL" : 14}, "indices" : 12, "material" : 4, "mode" : 4}, {"attributes" : {"POSITION" : 16, "NORMAL" : 17}, "indices" : 15, "material" : 5, "mode" : 4}, {"attributes" : {"POSITION" : 19, "NORMAL" : 20}, "indices" : 18, "material" : 6, "mode" : 4}, {"attributes" : {"POSITION" : 22, "NORMAL" : 23}, "indices" : 21, "material" : 7, "mode" : 4}, {"attributes" : {"POSITION" : 25, "NORMAL" : 26}, "indices" : 24, "material" : 8, "mode" : 4}, {"attributes" : {"POSITION" : 28, "NORMAL" : 29}, "indices" : 27, "material" : 9, "mode" : 4}]}], "nodes" : [{"mesh" : 0, "name" : "Node"}], "scene" : 0, "scenes" : [{"nodes" : [0]}]}