{"accessors" : [{"bufferView" : 0, "byteOffset" : 0, "componentType" : 5123, "count" : 324, "type" : "SCALAR", "max" : [323], "min" : [0]}, {"bufferView" : 1, "byteOffset" : 0, "componentType" : 5126, "count" : 324, "type" : "VEC3", "max" : [5.802320957183838, -1.2251579761505127, 8.164032936096191], "min" : [-17.643959045410156, -1.6679919958114624, -12.75190258026123], "name" : "POSITION"}, {"bufferView" : 1, "byteOffset" : 12, "componentType" : 5126, "count" : 324, "type" : "VEC3", "max" : [0.9237686991691589, 0.9998477697372437, 0.9367995858192444], "min" : [-0.9237686991691589, -1.0000044107437134, -0.9367995858192444], "name" : "NORMAL"}, {"bufferView" : 0, "byteOffset" : 648, "componentType" : 5123, "count" : 324, "type" : "SCALAR", "max" : [303], "min" : [0]}, {"bufferView" : 2, "byteOffset" : 0, "componentType" : 5126, "count" : 304, "type" : "VEC3", "max" : [5.2145609855651855, 0.24556100368499756, 7.639705181121826], "min" : [-17.056198120117188, -1.431931972503662, -12.227574348449707], "name" : "POSITION"}, {"bufferView" : 2, "byteOffset" : 12, "componentType" : 5126, "count" : 304, "type" : "VEC3", "max" : [0.9115505814552307, 0.9998461008071899, 0.9324603080749512], "min" : [-0.9062144160270691, -0.388001412153244, -0.9324603080749512], "name" : "NORMAL"}, {"bufferView" : 0, "byteOffset" : 1296, "componentType" : 5123, "count" : 252, "type" : "SCALAR", "max" : [250], "min" : [0]}, {"bufferView" : 3, "byteOffset" : 0, "componentType" : 5126, "count" : 251, "type" : "VEC3", "max" : [18.85745620727539, 4.110498905181885, 7.335364818572998], "min" : [8.924403190612793, 1.8961009979248047, -7.3353657722473145], "name" : "POSITION"}, {"bufferView" : 3, "byteOffset" : 12, "componentType" : 5126, "count" : 251, "type" : "VEC3", "max" : [0, 0.2532981038093567, 0.9949620962142944], "min" : [-0.986780047416687, -0.2532981038093567, -0.9673928618431091], "name" : "NORMAL"}, {"bufferView" : 0, "byteOffset" : 1800, "componentType" : 5123, "count" : 480, "type" : "SCALAR", "max" : [463], "min" : [0]}, {"bufferView" : 4, "byteOffset" : 0, "componentType" : 5126, "count" : 464, "type" : "VEC3", "max" : [19.17344856262207, 4.503300189971924, 7.669978141784668], "min" : [8.611449241638184, 1.5032999515533447, -7.669979095458984], "name" : "POSITION"}, {"bufferView" : 4, "byteOffset" : 12, "componentType" : 5126, "count" : 464, "type" : "VEC3", "max" : [1.0000044107437134, 1.0000044107437134, 0.9929050207138062], "min" : [-0.997119665145874, -1.0000044107437134, -0.9915364384651184], "name" : "NORMAL"}, {"bufferView" : 0, "byteOffset" : 2760, "componentType" : 5123, "count" : 72, "type" : "SCALAR", "max" : [71], "min" : [0]}, {"bufferView" : 5, "byteOffset" : 0, "componentType" : 5126, "count" : 72, "type" : "VEC3", "max" : [19.17344856262207, 4.503300189971924, 5.674290180206299], "min" : [18.6114501953125, 1.5032999515533447, -6.347060203552246], "name" : "POSITION"}, {"bufferView" : 5, "byteOffset" : 12, "componentType" : 5126, "count" : 72, "type" : "VEC3", "max" : [1.0000044107437134, 0.6124259233474731, 0], "min" : [0.7905334830284119, -0.6124259233474731, 0], "name" : "NORMAL"}, {"bufferView" : 0, "byteOffset" : 2904, "componentType" : 5123, "count" : 264, "type" : "SCALAR", "max" : [263], "min" : [0]}, {"bufferView" : 6, "byteOffset" : 0, "componentType" : 5126, "count" : 264, "type" : "VEC3", "max" : [19.17344856262207, 1.5, 7.669978141784668], "min" : [8.611449241638184, -1.5, -7.669979095458984], "name" : "POSITION"}, {"bufferView" : 6, "byteOffset" : 12, "componentType" : 5126, "count" : 264, "type" : "VEC3", "max" : [1.0000044107437134, 1.0000044107437134, 0.9998779892921448], "min" : [-0.9966616630554199, -1.0000044107437134, -0.9998779892921448], "name" : "NORMAL"}, {"bufferView" : 0, "byteOffset" : 3432, "componentType" : 5123, "count" : 108, "type" : "SCALAR", "max" : [107], "min" : [0]}, {"bufferView" : 7, "byteOffset" : 0, "componentType" : 5126, "count" : 108, "type" : "VEC3", "max" : [18.843387603759766, 1.10719895362854, 7.335364818572998], "min" : [8.924403190612793, -1.10719895362854, -7.3353657722473145], "name" : "POSITION"}, {"bufferView" : 7, "byteOffset" : 12, "componentType" : 5126, "count" : 108, "type" : "VEC3", "max" : [0, 0.374097615480423, 0.9973946213722229], "min" : [-0.9776645302772522, -0.374097615480423, -1.0000044107437134], "name" : "NORMAL"}, {"bufferView" : 0, "byteOffset" : 3648, "componentType" : 5123, "count" : 252, "type" : "SCALAR", "max" : [250], "min" : [0]}, {"bufferView" : 8, "byteOffset" : 0, "componentType" : 5126, "count" : 251, "type" : "VEC3", "max" : [18.843387603759766, 6.036552906036377, 7.335364818572998], "min" : [8.924403190612793, 4.7088799476623535, -7.3353657722473145], "name" : "POSITION"}, {"bufferView" : 8, "byteOffset" : 12, "componentType" : 5126, "count" : 251, "type" : "VEC3", "max" : [0.00030000091646797955, 0.3807011544704437, 0.9396718740463257], "min" : [-0.9412950277328491, -0.3807011544704437, -0.9321850538253784], "name" : "NORMAL"}, {"bufferView" : 0, "byteOffset" : 4152, "componentType" : 5123, "count" : 480, "type" : "SCALAR", "max" : [463], "min" : [0]}, {"bufferView" : 9, "byteOffset" : 0, "componentType" : 5126, "count" : 464, "type" : "VEC3", "max" : [19.17344856262207, 6.272061824798584, 7.682528018951416], "min" : [8.611449241638184, 4.4733710289001465, -7.682528972625732], "name" : "POSITION"}, {"bufferView" : 9, "byteOffset" : 12, "componentType" : 5126, "count" : 464, "type" : "VEC3", "max" : [1.0000044107437134, 1.0000044107437134, 0.9981648921966553], "min" : [-0.9699582457542419, -1.0000044107437134, -0.9981648921966553], "name" : "NORMAL"}, {"bufferView" : 0, "byteOffset" : 5112, "componentType" : 5123, "count" : 72, "type" : "SCALAR", "max" : [71], "min" : [0]}, {"bufferView" : 10, "byteOffset" : 0, "componentType" : 5126, "count" : 72, "type" : "VEC3", "max" : [19.17344856262207, 6.272061824798584, 6.745345115661621], "min" : [18.6114501953125, 4.4733710289001465, -6.745345115661621], "name" : "POSITION"}, {"bufferView" : 10, "byteOffset" : 12, "componentType" : 5126, "count" : 72, "type" : "VEC3", "max" : [1.0000044107437134, 0.8027788400650024, 0], "min" : [0.5962842702865601, -0.8027788400650024, 0], "name" : "NORMAL"}], "asset" : {"generator" : "Aspose.3D 23.2", "version" : "2.0"}, "buffers" : [{"uri" : "data:application/octet-stream;base64,", "byteLength" : 68372}], "bufferViews" : [{"buffer" : 0, "byteOffset" : 0, "byteLength" : 5256, "target" : 34963}, {"buffer" : 0, "byteOffset" : 5260, "byteLength" : 7776, "byteStride" : 24, "target" : 34962}, {"buffer" : 0, "byteOffset" : 13040, "byteLength" : 7776, "byteStride" : 24, "target" : 34962}, {"buffer" : 0, "byteOffset" : 20820, "byteLength" : 6048, "byteStride" : 24, "target" : 34962}, {"buffer" : 0, "byteOffset" : 26872, "byteLength" : 11520, "byteStride" : 24, "target" : 34962}, {"buffer" : 0, "byteOffset" : 38396, "byteLength" : 1728, "byteStride" : 24, "target" : 34962}, {"buffer" : 0, "byteOffset" : 40128, "byteLength" : 6336, "byteStride" : 24, "target" : 34962}, {"buffer" : 0, "byteOffset" : 46468, "byteLength" : 2592, "byteStride" : 24, "target" : 34962}, {"buffer" : 0, "byteOffset" : 49064, "byteLength" : 6048, "byteStride" : 24, "target" : 34962}, {"buffer" : 0, "byteOffset" : 55116, "byteLength" : 11520, "byteStride" : 24, "target" : 34962}, {"buffer" : 0, "byteOffset" : 66640, "byteLength" : 1728, "byteStride" : 24, "target" : 34962}], "materials" : [{"name" : "009688", "pbrMetallicRoughness" : {"baseColorFactor" : [0, 0.31, 0.25, 1], "metallicFactor" : 0, "roughnessFactor" : 0.903921569}, "emissiveFactor" : [0, 0, 0], "alphaMode" : "OPAQUE", "doubleSided" : false}, {"name" : "FFFFFF", "pbrMetallicRoughness" : {"baseColorFactor" : [1, 1, 1, 1], "metallicFactor" : 0, "roughnessFactor" : 0.903921569}, "emissiveFactor" : [0, 0, 0], "alphaMode" : "OPAQUE", "doubleSided" : false}, {"name" : "FFFFFF", "pbrMetallicRoughness" : {"baseColorFactor" : [1, 1, 1, 1], "metallicFactor" : 0, "roughnessFactor" : 0.903921569}, "emissiveFactor" : [0, 0, 0], "alphaMode" : "OPAQUE", "doubleSided" : false}, {"name" : "F44336", "pbrMetallicRoughness" : {"baseColorFactor" : [0.91, 0.05, 0.03, 1], "metallicFactor" : 0, "roughnessFactor" : 0.903921569}, "emissiveFactor" : [0, 0, 0], "alphaMode" : "OPAQUE", "doubleSided" : false}, {"name" : "FF5722", "pbrMetallicRoughness" : {"baseColorFactor" : [1, 0.09, 0.01, 1], "metallicFactor" : 0, "roughnessFactor" : 0.903921569}, "emissiveFactor" : [0, 0, 0], "alphaMode" : "OPAQUE", "doubleSided" : false}, {"name" : "8BC34A", "pbrMetallicRoughness" : {"baseColorFactor" : [0.26, 0.55, 0.07, 1], "metallicFactor" : 0, "roughnessFactor" : 0.903921569}, "emissiveFactor" : [0, 0, 0], "alphaMode" : "OPAQUE", "doubleSided" : false}, {"name" : "FFFFFF", "pbrMetallicRoughness" : {"baseColorFactor" : [1, 1, 1, 1], "metallicFactor" : 0, "roughnessFactor" : 0.903921569}, "emissiveFactor" : [0, 0, 0], "alphaMode" : "OPAQUE", "doubleSided" : false}, {"name" : "FFFFFF", "pbrMetallicRoughness" : {"baseColorFactor" : [1, 1, 1, 1], "metallicFactor" : 0, "roughnessFactor" : 0.903921569}, "emissiveFactor" : [0, 0, 0], "alphaMode" : "OPAQUE", "doubleSided" : false}, {"name" : "DD9944", "pbrMetallicRoughness" : {"baseColorFactor" : [0.73, 0.33, 0.05, 1], "metallicFactor" : 0, "roughnessFactor" : 0.903921569}, "emissiveFactor" : [0, 0, 0], "alphaMode" : "OPAQUE", "doubleSided" : false}, {"name" : "F44336", "pbrMetallicRoughness" : {"baseColorFactor" : [0.91, 0.05, 0.03, 1], "metallicFactor" : 0, "roughnessFactor" : 0.903921569}, "emissiveFactor" : [0, 0, 0], "alphaMode" : "OPAQUE", "doubleSided" : false}], "meshes" : [{"primitives" : [{"attributes" : {"POSITION" : 1, "NORMAL" : 2}, "indices" : 0, "material" : 0, "mode" : 4}, {"attributes" : {"POSITION" : 4, "NORMAL" : 5}, "indices" : 3, "material" : 1, "mode" : 4}]}, {"primitives" : [{"attributes" : {"POSITION" : 7, "NORMAL" : 8}, "indices" : 6, "material" : 2, "mode" : 4}, {"attributes" : {"POSITION" : 10, "NORMAL" : 11}, "indices" : 9, "material" : 3, "mode" : 4}, {"attributes" : {"POSITION" : 13, "NORMAL" : 14}, "indices" : 12, "material" : 4, "mode" : 4}]}, {"primitives" : [{"attributes" : {"POSITION" : 16, "NORMAL" : 17}, "indices" : 15, "material" : 5, "mode" : 4}, {"attributes" : {"POSITION" : 19, "NORMAL" : 20}, "indices" : 18, "material" : 6, "mode" : 4}]}, {"primitives" : [{"attributes" : {"POSITION" : 22, "NORMAL" : 23}, "indices" : 21, "material" : 7, "mode" : 4}, {"attributes" : {"POSITION" : 25, "NORMAL" : 26}, "indices" : 24, "material" : 8, "mode" : 4}, {"attributes" : {"POSITION" : 28, "NORMAL" : 29}, "indices" : 27, "material" : 9, "mode" : 4}]}], "nodes" : [{"mesh" : 0, "name" : "book_Cube.026"}, {"mesh" : 1, "name" : "book2_Cube.024"}, {"mesh" : 2, "name" : "book3_Cube"}, {"mesh" : 3, "name" : "Book1_Cube.025"}], "scene" : 0, "scenes" : [{"nodes" : [0, 1, 2, 3]}]}