{"accessors" : [{"bufferView" : 0, "byteOffset" : 0, "componentType" : 5123, "count" : 1776, "type" : "SCALAR", "max" : [1769], "min" : [0]}, {"bufferView" : 1, "byteOffset" : 0, "componentType" : 5126, "count" : 1770, "type" : "VEC3", "max" : [0.5666329264640808, 0.9246761798858643, 0.25419241189956665], "min" : [-0.5333672165870667, -0.5183451771736145, -0.1933266967535019], "name" : "POSITION"}, {"bufferView" : 1, "byteOffset" : 12, "componentType" : 5126, "count" : 1770, "type" : "VEC3", "max" : [1.0000044107437134, 1.0000044107437134, 1.0000044107437134], "min" : [-1.0000044107437134, -1.0000044107437134, -1.0000044107437134], "name" : "NORMAL"}, {"bufferView" : 1, "byteOffset" : 24, "componentType" : 5126, "count" : 1770, "type" : "VEC2", "max" : [0.19462759792804718, 1.0889439582824707], "min" : [-0.19657869637012482, 0.7956886887550354], "name" : "TEXCOORD_0"}, {"bufferView" : 0, "byteOffset" : 3552, "componentType" : 5123, "count" : 42, "type" : "SCALAR", "max" : [41], "min" : [0]}, {"bufferView" : 2, "byteOffset" : 0, "componentType" : 5126, "count" : 42, "type" : "VEC3", "max" : [0.5066329836845398, 0.26165491342544556, 0.11390189826488495], "min" : [-0.47336769104003906, -0.4583452045917511, -0.0361630916595459], "name" : "POSITION"}, {"bufferView" : 2, "byteOffset" : 12, "componentType" : 5126, "count" : 42, "type" : "VEC3", "max" : [0.8238999247550964, 0.9528239369392395, 1.0000044107437134], "min" : [-0.5987207889556885, -0.9509691596031189, -1.0000044107437134], "name" : "NORMAL"}, {"bufferView" : 2, "byteOffset" : 24, "componentType" : 5126, "count" : 42, "type" : "VEC2", "max" : [0.13818900287151337, 1.005736231803894], "min" : [-0.13729460537433624, 0.8734384775161743], "name" : "TEXCOORD_0"}, {"bufferView" : 0, "byteOffset" : 3636, "componentType" : 5123, "count" : 324, "type" : "SCALAR", "max" : [315], "min" : [0]}, {"bufferView" : 3, "byteOffset" : 0, "componentType" : 5126, "count" : 316, "type" : "VEC3", "max" : [0.37848660349845886, 0.18870259821414948, 0.08926673233509064], "min" : [-0.4726783037185669, -0.46351298689842224, -0.15423579514026642], "name" : "POSITION"}, {"bufferView" : 3, "byteOffset" : 12, "componentType" : 5126, "count" : 316, "type" : "VEC3", "max" : [0.9785302877426147, 0.9801032543182373, 0.999128520488739], "min" : [-0.9785302877426147, -0.9851760864257812, -0.9991284608840942], "name" : "NORMAL"}, {"bufferView" : 3, "byteOffset" : 24, "componentType" : 5126, "count" : 316, "type" : "VEC2", "max" : [0.1059051975607872, 1.0099633932113647], "min" : [-0.1059051975607872, 0.8616328835487366], "name" : "TEXCOORD_0"}, {"bufferView" : 0, "byteOffset" : 4284, "componentType" : 5123, "count" : 978, "type" : "SCALAR", "max" : [942], "min" : [0]}, {"bufferView" : 4, "byteOffset" : 0, "componentType" : 5126, "count" : 943, "type" : "VEC3", "max" : [0.496155709028244, 0.8600842952728271, 0.1403253972530365], "min" : [-0.47102779150009155, -0.4603270888328552, -0.1481754034757614], "name" : "POSITION"}, {"bufferView" : 4, "byteOffset" : 12, "componentType" : 5126, "count" : 943, "type" : "VEC3", "max" : [0.9997634887695312, 0.99989914894104, 0.9999094605445862], "min" : [-0.9910599589347839, -0.9996953010559082, -0.9812822937965393], "name" : "NORMAL"}, {"bufferView" : 4, "byteOffset" : 24, "componentType" : 5126, "count" : 943, "type" : "VEC2", "max" : [0.1861937940120697, 1.175478458404541], "min" : [-0.1852239966392517, 0.8070371150970459], "name" : "TEXCOORD_0"}, {"bufferView" : 0, "byteOffset" : 6240, "componentType" : 5123, "count" : 300, "type" : "SCALAR", "max" : [293], "min" : [0]}, {"bufferView" : 5, "byteOffset" : 0, "componentType" : 5126, "count" : 294, "type" : "VEC3", "max" : [0.5046907067298889, 0.1522527039051056, 0.07603482902050018], "min" : [0.3301383852958679, -0.4538157880306244, -0.12565909326076508], "name" : "POSITION"}, {"bufferView" : 5, "byteOffset" : 12, "componentType" : 5126, "count" : 294, "type" : "VEC3", "max" : [0.9938849806785583, 0.9952118396759033, 0.9996339082717896], "min" : [-0.9938850402832031, -0.9979419708251953, -0.9995644092559814], "name" : "NORMAL"}, {"bufferView" : 5, "byteOffset" : 24, "componentType" : 5126, "count" : 294, "type" : "VEC2", "max" : [0.09304674714803696, 0.9882587790489197], "min" : [-0.10052210092544556, 0.8627910017967224], "name" : "TEXCOORD_0"}, {"bufferView" : 0, "byteOffset" : 6840, "componentType" : 5123, "count" : 324, "type" : "SCALAR", "max" : [322], "min" : [0]}, {"bufferView" : 6, "byteOffset" : 0, "componentType" : 5126, "count" : 323, "type" : "VEC3", "max" : [0.506094217300415, 0.20954060554504395, 0.09465436637401581], "min" : [-0.3041751980781555, -0.452508807182312, -0.13303349912166595], "name" : "POSITION"}, {"bufferView" : 6, "byteOffset" : 12, "componentType" : 5126, "count" : 323, "type" : "VEC3", "max" : [0.9997339248657227, 0.9997443556785583, 0.999909520149231], "min" : [-0.9997337460517883, -0.9997443556785583, -0.9999094605445862], "name" : "NORMAL"}, {"bufferView" : 6, "byteOffset" : 24, "componentType" : 5126, "count" : 323, "type" : "VEC2", "max" : [0.09737259149551392, 1.0188771486282349], "min" : [-0.10342050343751907, 0.8573786020278931], "name" : "TEXCOORD_0"}, {"bufferView" : 0, "byteOffset" : 7488, "componentType" : 5123, "count" : 324, "type" : "SCALAR", "max" : [315], "min" : [0]}, {"bufferView" : 7, "byteOffset" : 0, "componentType" : 5126, "count" : 316, "type" : "VEC3", "max" : [0.3848665952682495, 0.2004133015871048, 0.0942063182592392], "min" : [-0.4837445914745331, -0.4478229880332947, -0.14400190114974976], "name" : "POSITION"}, {"bufferView" : 7, "byteOffset" : 12, "componentType" : 5126, "count" : 316, "type" : "VEC3", "max" : [0.9862244725227356, 0.9939131736755371, 0.9995156526565552], "min" : [-0.9862244725227356, -0.986077606678009, -0.9995157122612], "name" : "NORMAL"}, {"bufferView" : 7, "byteOffset" : 24, "componentType" : 5126, "count" : 316, "type" : "VEC2", "max" : [0.13316120207309723, 1.0192382335662842], "min" : [-0.13156870007514954, 0.8626483082771301], "name" : "TEXCOORD_0"}, {"bufferView" : 0, "byteOffset" : 8136, "componentType" : 5123, "count" : 486, "type" : "SCALAR", "max" : [477], "min" : [0]}, {"bufferView" : 8, "byteOffset" : 0, "componentType" : 5126, "count" : 478, "type" : "VEC3", "max" : [0.4873911142349243, 0.23093609511852264, 0.11286740005016327], "min" : [-0.45517680048942566, -0.4569168984889984, -0.14822450280189514], "name" : "POSITION"}, {"bufferView" : 8, "byteOffset" : 12, "componentType" : 5126, "count" : 478, "type" : "VEC3", "max" : [0.9846785664558411, 0.9998845458030701, 0.9996978044509888], "min" : [-0.9848308563232422, -0.9998845458030701, -0.9996978044509888], "name" : "NORMAL"}, {"bufferView" : 8, "byteOffset" : 24, "componentType" : 5126, "count" : 478, "type" : "VEC2", "max" : [0.13519339263439178, 1.0088591575622559], "min" : [-0.1336396038532257, 0.8599885702133179], "name" : "TEXCOORD_0"}, {"bufferView" : 0, "byteOffset" : 9108, "componentType" : 5123, "count" : 684, "type" : "SCALAR", "max" : [668], "min" : [0]}, {"bufferView" : 9, "byteOffset" : 0, "componentType" : 5126, "count" : 669, "type" : "VEC3", "max" : [0.44156309962272644, 0.1631685048341751, 0.08803583681583405], "min" : [-0.41146451234817505, -0.461100310087204, -0.14760200679302216], "name" : "POSITION"}, {"bufferView" : 9, "byteOffset" : 12, "componentType" : 5126, "count" : 669, "type" : "VEC3", "max" : [0.9785016775131226, 0.9811155796051025, 0.9998396039009094], "min" : [-0.9785016775131226, -0.9856916069984436, -0.9998396039009094], "name" : "NORMAL"}, {"bufferView" : 9, "byteOffset" : 24, "componentType" : 5126, "count" : 669, "type" : "VEC2", "max" : [0.09860719740390778, 1.0057053565979004], "min" : [-0.10236389935016632, 0.8618605732917786], "name" : "TEXCOORD_0"}, {"bufferView" : 0, "byteOffset" : 10476, "componentType" : 5123, "count" : 162, "type" : "SCALAR", "max" : [158], "min" : [0]}, {"bufferView" : 10, "byteOffset" : 0, "componentType" : 5126, "count" : 159, "type" : "VEC3", "max" : [0.03543407842516899, -0.32260701060295105, 0.07778550684452057], "min" : [-0.23456589877605438, -0.35878419876098633, -0.1405418962240219], "name" : "POSITION"}, {"bufferView" : 10, "byteOffset" : 12, "componentType" : 5126, "count" : 159, "type" : "VEC3", "max" : [0.9785081744194031, 0.9998634457588196, 0.9756039977073669], "min" : [-0.9797583222389221, -0.9998634457588196, -0.9756039977073669], "name" : "NORMAL"}, {"bufferView" : 10, "byteOffset" : 24, "componentType" : 5126, "count" : 159, "type" : "VEC2", "max" : [0.07848875224590302, 1.0183830261230469], "min" : [-0.07848866283893585, 0.9260703325271606], "name" : "TEXCOORD_0"}, {"bufferView" : 0, "byteOffset" : 10800, "componentType" : 5123, "count" : 450, "type" : "SCALAR", "max" : [446], "min" : [0]}, {"bufferView" : 11, "byteOffset" : 0, "componentType" : 5126, "count" : 447, "type" : "VEC3", "max" : [0.04787604883313179, 0.1217947006225586, 0.08085764944553375], "min" : [-0.36380070447921753, -0.0867455005645752, -0.1692993938922882], "name" : "POSITION"}, {"bufferView" : 11, "byteOffset" : 12, "componentType" : 5126, "count" : 447, "type" : "VEC3", "max" : [0.9757992625236511, 0.9974976181983948, 0.9976927638053894], "min" : [-0.9757996797561646, -0.99749755859375, -0.9976925253868103], "name" : "NORMAL"}, {"bufferView" : 11, "byteOffset" : 24, "componentType" : 5126, "count" : 447, "type" : "VEC2", "max" : [0.12313809990882874, 1.0875097513198853], "min" : [-0.12199059873819351, 0.8818656206130981], "name" : "TEXCOORD_0"}, {"bufferView" : 0, "byteOffset" : 11700, "componentType" : 5123, "count" : 84, "type" : "SCALAR", "max" : [83], "min" : [0]}, {"bufferView" : 12, "byteOffset" : 0, "componentType" : 5126, "count" : 84, "type" : "VEC3", "max" : [-0.1605260968208313, 0.08536220341920853, 0.08085764944553375], "min" : [-0.36380070447921753, -0.08351635932922363, -0.11706069856882095], "name" : "POSITION"}, {"bufferView" : 12, "byteOffset" : 12, "componentType" : 5126, "count" : 84, "type" : "VEC3", "max" : [0.9757991433143616, 0.649693489074707, 0.900389552116394], "min" : [-0.973651111125946, -0.06988801062107086, -0.9976926445960999], "name" : "NORMAL"}, {"bufferView" : 12, "byteOffset" : 24, "componentType" : 5126, "count" : 84, "type" : "VEC2", "max" : [0.10539089888334274, 1.0580037832260132], "min" : [-0.10508029907941818, 0.8990703225135803], "name" : "TEXCOORD_0"}, {"bufferView" : 0, "byteOffset" : 11868, "componentType" : 5123, "count" : 288, "type" : "SCALAR", "max" : [287], "min" : [0]}, {"bufferView" : 13, "byteOffset" : 0, "componentType" : 5126, "count" : 288, "type" : "VEC3", "max" : [0.3152438998222351, -0.28719648718833923, 0.0423445887863636], "min" : [0.2167564034461975, -0.45414531230926514, -0.1003125011920929], "name" : "POSITION"}, {"bufferView" : 13, "byteOffset" : 12, "componentType" : 5126, "count" : 288, "type" : "VEC3", "max" : [0.9986686110496521, 0.9994770288467407, 0.9996274709701538], "min" : [-0.9986686110496521, -0.9994770288467407, -0.999627411365509], "name" : "NORMAL"}, {"bufferView" : 13, "byteOffset" : 24, "componentType" : 5126, "count" : 288, "type" : "VEC2", "max" : [0.07177331298589706, 0.9732871055603027], "min" : [-0.07177328318357468, 0.9230433702468872], "name" : "TEXCOORD_0"}, {"bufferView" : 0, "byteOffset" : 12444, "componentType" : 5123, "count" : 36, "type" : "SCALAR", "max" : [35], "min" : [0]}, {"bufferView" : 14, "byteOffset" : 0, "componentType" : 5126, "count" : 36, "type" : "VEC3", "max" : [0.0649508684873581, -0.022329330444335938, -0.13440360128879547], "min" : [0.036613330245018005, -0.04023003950715065, -0.15940549969673157], "name" : "POSITION"}, {"bufferView" : 14, "byteOffset" : 12, "componentType" : 5126, "count" : 36, "type" : "VEC3", "max" : [0.5502734184265137, 0.9735724925994873, 0.7957002520561218], "min" : [-0.5521824955940247, -0.9734359383583069, -0.8009256720542908], "name" : "NORMAL"}, {"bufferView" : 14, "byteOffset" : 24, "componentType" : 5126, "count" : 36, "type" : "VEC2", "max" : [0.09023787826299667, 1.0011849403381348], "min" : [-0.08991341292858124, 0.9134653210639954], "name" : "TEXCOORD_0"}, {"bufferView" : 0, "byteOffset" : 12516, "componentType" : 5123, "count" : 324, "type" : "SCALAR", "max" : [323], "min" : [0]}, {"bufferView" : 15, "byteOffset" : 0, "componentType" : 5126, "count" : 324, "type" : "VEC3", "max" : [0.1957557052373886, 0.872330904006958, 0.25419241189956665], "min" : [-0.5324646830558777, -0.04275178909301758, -0.19244690239429474], "name" : "POSITION"}, {"bufferView" : 15, "byteOffset" : 12, "componentType" : 5126, "count" : 324, "type" : "VEC3", "max" : [0.8463616967201233, 0.9312703609466553, 0.8190186619758606], "min" : [-0.8126240968704224, -0.9429003000259399, -0.8020686507225037], "name" : "NORMAL"}, {"bufferView" : 15, "byteOffset" : 24, "componentType" : 5126, "count" : 324, "type" : "VEC2", "max" : [0.16083930432796478, 1.159069538116455], "min" : [-0.16818420588970184, 0.8582420945167542], "name" : "TEXCOORD_0"}, {"bufferView" : 0, "byteOffset" : 13164, "componentType" : 5123, "count" : 306, "type" : "SCALAR", "max" : [303], "min" : [0]}, {"bufferView" : 16, "byteOffset" : 0, "componentType" : 5126, "count" : 304, "type" : "VEC3", "max" : [-0.14992110431194305, 0.7129948139190674, 0.19390720129013062], "min" : [-0.47795671224594116, 0.32736289501190186, -0.13412390649318695], "name" : "POSITION"}, {"bufferView" : 16, "byteOffset" : 12, "componentType" : 5126, "count" : 304, "type" : "VEC3", "max" : [0.942775309085846, 0.8593712449073792, 0.9428013563156128], "min" : [-0.9427752494812012, -0.99989914894104, -0.9428013563156128], "name" : "NORMAL"}, {"bufferView" : 16, "byteOffset" : 24, "componentType" : 5126, "count" : 304, "type" : "VEC2", "max" : [0.1761547029018402, 1.1332745552062988], "min" : [-0.1773402988910675, 0.8147333264350891], "name" : "TEXCOORD_0"}], "asset" : {"generator" : "Aspose.3D 23.2", "version" : "2.0"}, "buffers" : [{"uri" : "data:application/octet-stream;base64,", "byteLength" : 234260}], "bufferViews" : [{"buffer" : 0, "byteOffset" : 0, "byteLength" : 13776, "target" : 34963}, {"buffer" : 0, "byteOffset" : 13780, "byteLength" : 56832, "byteStride" : 32, "target" : 34962}, {"buffer" : 0, "byteOffset" : 70616, "byteLength" : 1344, "byteStride" : 32, "target" : 34962}, {"buffer" : 0, "byteOffset" : 71964, "byteLength" : 10368, "byteStride" : 32, "target" : 34962}, {"buffer" : 0, "byteOffset" : 82336, "byteLength" : 31296, "byteStride" : 32, "target" : 34962}, {"buffer" : 0, "byteOffset" : 113636, "byteLength" : 9600, "byteStride" : 32, "target" : 34962}, {"buffer" : 0, "byteOffset" : 123240, "byteLength" : 10368, "byteStride" : 32, "target" : 34962}, {"buffer" : 0, "byteOffset" : 133612, "byteLength" : 10368, "byteStride" : 32, "target" : 34962}, {"buffer" : 0, "byteOffset" : 143984, "byteLength" : 15552, "byteStride" : 32, "target" : 34962}, {"buffer" : 0, "byteOffset" : 159540, "byteLength" : 21888, "byteStride" : 32, "target" : 34962}, {"buffer" : 0, "byteOffset" : 181432, "byteLength" : 5184, "byteStride" : 32, "target" : 34962}, {"buffer" : 0, "byteOffset" : 186620, "byteLength" : 14400, "byteStride" : 32, "target" : 34962}, {"buffer" : 0, "byteOffset" : 201024, "byteLength" : 2688, "byteStride" : 32, "target" : 34962}, {"buffer" : 0, "byteOffset" : 203716, "byteLength" : 9216, "byteStride" : 32, "target" : 34962}, {"buffer" : 0, "byteOffset" : 212936, "byteLength" : 1152, "byteStride" : 32, "target" : 34962}, {"buffer" : 0, "byteOffset" : 214092, "byteLength" : 10368, "byteStride" : 32, "target" : 34962}, {"buffer" : 0, "byteOffset" : 224464, "byteLength" : 9792, "byteStride" : 32, "target" : 34962}], "materials" : [{"name" : "mat20", "pbrMetallicRoughness" : {"baseColorFactor" : [0.19, 0.09, 0.06, 1], "metallicFactor" : 0, "roughnessFactor" : 1}, "emissiveFactor" : [0, 0, 0], "alphaMode" : "OPAQUE", "doubleSided" : false}, {"name" : "mat17", "pbrMetallicRoughness" : {"baseColorFactor" : [0.06, 0.1, 0.13, 1], "metallicFactor" : 0, "roughnessFactor" : 1}, "emissiveFactor" : [0, 0, 0], "alphaMode" : "OPAQUE", "doubleSided" : false}, {"name" : "mat5", "pbrMetallicRoughness" : {"baseColorFactor" : [0, 0.34, 0.79, 1], "metallicFactor" : 0, "roughnessFactor" : 1}, "emissiveFactor" : [0, 0, 0], "alphaMode" : "OPAQUE", "doubleSided" : false}, {"name" : "mat21", "pbrMetallicRoughness" : {"baseColorFactor" : [1, 1, 1, 1], "metallicFactor" : 0, "roughnessFactor" : 1}, "emissiveFactor" : [0, 0, 0], "alphaMode" : "OPAQUE", "doubleSided" : false}, {"name" : "mat11", "pbrMetallicRoughness" : {"baseColorFactor" : [0, 0.31, 0.25, 1], "metallicFactor" : 0, "roughnessFactor" : 1}, "emissiveFactor" : [0, 0, 0], "alphaMode" : "OPAQUE", "doubleSided" : false}, {"name" : "mat9", "pbrMetallicRoughness" : {"baseColorFactor" : [0.27, 0.55, 0.07, 1], "metallicFactor" : 0, "roughnessFactor" : 1}, "emissiveFactor" : [0, 0, 0], "alphaMode" : "OPAQUE", "doubleSided" : false}, {"name" : "mat4", "pbrMetallicRoughness" : {"baseColorFactor" : [0, 0.52, 0.66, 1], "metallicFactor" : 0, "roughnessFactor" : 1}, "emissiveFactor" : [0, 0, 0], "alphaMode" : "OPAQUE", "doubleSided" : false}, {"name" : "mat8", "pbrMetallicRoughness" : {"baseColorFactor" : [0.91, 0.05, 0.03, 1], "metallicFactor" : 0, "roughnessFactor" : 1}, "emissiveFactor" : [0, 0, 0], "alphaMode" : "OPAQUE", "doubleSided" : false}, {"name" : "mat13", "pbrMetallicRoughness" : {"baseColorFactor" : [1, 0.33, 0, 1], "metallicFactor" : 0, "roughnessFactor" : 1}, "emissiveFactor" : [0, 0, 0], "alphaMode" : "OPAQUE", "doubleSided" : false}, {"name" : "mat3", "pbrMetallicRoughness" : {"baseColorFactor" : [0.22, 0.74, 0.83, 1], "metallicFactor" : 0, "roughnessFactor" : 1}, "emissiveFactor" : [0, 0, 0], "alphaMode" : "OPAQUE", "doubleSided" : false}, {"name" : "mat7", "pbrMetallicRoughness" : {"baseColorFactor" : [0.87, 0.12, 0.29, 1], "metallicFactor" : 0, "roughnessFactor" : 1}, "emissiveFactor" : [0, 0, 0], "alphaMode" : "OPAQUE", "doubleSided" : false}, {"name" : "mat6", "pbrMetallicRoughness" : {"baseColorFactor" : [0.94, 0.5, 0.65, 1], "metallicFactor" : 0, "roughnessFactor" : 1}, "emissiveFactor" : [0, 0, 0], "alphaMode" : "OPAQUE", "doubleSided" : false}, {"name" : "mat23", "pbrMetallicRoughness" : {"baseColorFactor" : [0.01, 0.01, 0.01, 1], "metallicFactor" : 0, "roughnessFactor" : 1}, "emissiveFactor" : [0, 0, 0], "alphaMode" : "OPAQUE", "doubleSided" : false}, {"name" : "mat22", "pbrMetallicRoughness" : {"baseColorFactor" : [0.35, 0.35, 0.35, 1], "metallicFactor" : 0, "roughnessFactor" : 1}, "emissiveFactor" : [0, 0, 0], "alphaMode" : "OPAQUE", "doubleSided" : false}, {"name" : "mat18", "pbrMetallicRoughness" : {"baseColorFactor" : [1, 0.61, 0.25, 1], "metallicFactor" : 0, "roughnessFactor" : 1}, "emissiveFactor" : [0, 0, 0], "alphaMode" : "OPAQUE", "doubleSided" : false}, {"name" : "mat19", "pbrMetallicRoughness" : {"baseColorFactor" : [0.74, 0.33, 0.06, 1], "metallicFactor" : 0, "roughnessFactor" : 1}, "emissiveFactor" : [0, 0, 0], "alphaMode" : "OPAQUE", "doubleSided" : false}], "meshes" : [{"primitives" : [{"attributes" : {"POSITION" : 1, "NORMAL" : 2, "TEXCOORD_0" : 3}, "indices" : 0, "material" : 0, "mode" : 4}, {"attributes" : {"POSITION" : 5, "NORMAL" : 6, "TEXCOORD_0" : 7}, "indices" : 4, "material" : 1, "mode" : 4}, {"attributes" : {"POSITION" : 9, "NORMAL" : 10, "TEXCOORD_0" : 11}, "indices" : 8, "material" : 2, "mode" : 4}, {"attributes" : {"POSITION" : 13, "NORMAL" : 14, "TEXCOORD_0" : 15}, "indices" : 12, "material" : 3, "mode" : 4}, {"attributes" : {"POSITION" : 17, "NORMAL" : 18, "TEXCOORD_0" : 19}, "indices" : 16, "material" : 4, "mode" : 4}, {"attributes" : {"POSITION" : 21, "NORMAL" : 22, "TEXCOORD_0" : 23}, "indices" : 20, "material" : 5, "mode" : 4}, {"attributes" : {"POSITION" : 25, "NORMAL" : 26, "TEXCOORD_0" : 27}, "indices" : 24, "material" : 6, "mode" : 4}, {"attributes" : {"POSITION" : 29, "NORMAL" : 30, "TEXCOORD_0" : 31}, "indices" : 28, "material" : 7, "mode" : 4}, {"attributes" : {"POSITION" : 33, "NORMAL" : 34, "TEXCOORD_0" : 35}, "indices" : 32, "material" : 8, "mode" : 4}, {"attributes" : {"POSITION" : 37, "NORMAL" : 38, "TEXCOORD_0" : 39}, "indices" : 36, "material" : 9, "mode" : 4}, {"attributes" : {"POSITION" : 41, "NORMAL" : 42, "TEXCOORD_0" : 43}, "indices" : 40, "material" : 10, "mode" : 4}, {"attributes" : {"POSITION" : 45, "NORMAL" : 46, "TEXCOORD_0" : 47}, "indices" : 44, "material" : 11, "mode" : 4}, {"attributes" : {"POSITION" : 49, "NORMAL" : 50, "TEXCOORD_0" : 51}, "indices" : 48, "material" : 12, "mode" : 4}, {"attributes" : {"POSITION" : 53, "NORMAL" : 54, "TEXCOORD_0" : 55}, "indices" : 52, "material" : 13, "mode" : 4}, {"attributes" : {"POSITION" : 57, "NORMAL" : 58, "TEXCOORD_0" : 59}, "indices" : 56, "material" : 14, "mode" : 4}, {"attributes" : {"POSITION" : 61, "NORMAL" : 62, "TEXCOORD_0" : 63}, "indices" : 60, "material" : 15, "mode" : 4}]}], "nodes" : [{"mesh" : 0, "name" : "group187267960"}], "scene" : 0, "scenes" : [{"nodes" : [0]}]}