{"accessors" : [{"bufferView" : 0, "byteOffset" : 0, "componentType" : 5123, "count" : 78, "type" : "SCALAR", "max" : [74], "min" : [0]}, {"bufferView" : 1, "byteOffset" : 0, "componentType" : 5126, "count" : 75, "type" : "VEC3", "max" : [0.0703928992152214, 0.2291429042816162, 0.0703928992152214], "min" : [-0.0703928992152214, 0.14814290404319763, -0.0703928992152214], "name" : "POSITION"}, {"bufferView" : 1, "byteOffset" : 12, "componentType" : 5126, "count" : 75, "type" : "VEC3", "max" : [0.9961774349212646, 1.0000044107437134, 0.9961774349212646], "min" : [-0.9961774349212646, 0.08740246295928955, -0.9961774349212646], "name" : "NORMAL"}, {"bufferView" : 1, "byteOffset" : 24, "componentType" : 5126, "count" : 75, "type" : "VEC2", "max" : [2.771373987197876, 3.771373987197876], "min" : [-2.771373987197876, -7.942657947540283], "name" : "TEXCOORD_0"}, {"bufferView" : 0, "byteOffset" : 156, "componentType" : 5123, "count" : 486, "type" : "SCALAR", "max" : [478], "min" : [0]}, {"bufferView" : 2, "byteOffset" : 0, "componentType" : 5126, "count" : 479, "type" : "VEC3", "max" : [0.2094385027885437, 0.18685400485992432, 0.2094385027885437], "min" : [-0.2094385027885437, 0, -0.2094385027885437], "name" : "POSITION"}, {"bufferView" : 2, "byteOffset" : 12, "componentType" : 5126, "count" : 479, "type" : "VEC3", "max" : [0.9157283306121826, 0.9862053394317627, 0.9157283306121826], "min" : [-0.9482991099357605, -1.0000044107437134, -0.9157283306121826], "name" : "NORMAL"}, {"bufferView" : 2, "byteOffset" : 24, "componentType" : 5126, "count" : 479, "type" : "VEC2", "max" : [7.490542888641357, 8.490543365478516], "min" : [-7.490542888641357, -7.828467845916748], "name" : "TEXCOORD_0"}], "asset" : {"generator" : "Aspose.3D 23.2", "version" : "2.0"}, "buffers" : [{"uri" : "data:application/octet-stream;base64,", "byteLength" : 19188}], "bufferViews" : [{"buffer" : 0, "byteOffset" : 0, "byteLength" : 1128, "target" : 34963}, {"buffer" : 0, "byteOffset" : 1132, "byteLength" : 2496, "byteStride" : 32, "target" : 34962}, {"buffer" : 0, "byteOffset" : 3632, "byteLength" : 15552, "byteStride" : 32, "target" : 34962}], "materials" : [{"name" : "green", "pbrMetallicRoughness" : {"baseColorFactor" : [0.15, 0.71, 0.45, 1], "metallicFactor" : 0, "roughnessFactor" : 1}, "emissiveFactor" : [0, 0, 0], "alphaMode" : "OPAQUE", "doubleSided" : false}, {"name" : "orange", "pbrMetallicRoughness" : {"baseColorFactor" : [1, 0.17, 0.04, 1], "metallicFactor" : 0, "roughnessFactor" : 1}, "emissiveFactor" : [0, 0, 0], "alphaMode" : "OPAQUE", "doubleSided" : false}], "meshes" : [{"primitives" : [{"attributes" : {"POSITION" : 1, "NORMAL" : 2, "TEXCOORD_0" : 3}, "indices" : 0, "material" : 0, "mode" : 4}, {"attributes" : {"POSITION" : 5, "NORMAL" : 6, "TEXCOORD_0" : 7}, "indices" : 4, "material" : 1, "mode" : 4}]}], "nodes" : [{"mesh" : 0, "name" : "pumpkin"}], "scene" : 0, "scenes" : [{"nodes" : [0]}]}