{
	"asset":{
		"version":"2.0",
		"generator":"Created using the official Cinema 4D glTF Exporter 1.000x284978"
	},
	"scenes":[{
		"nodes":[0]
	}],
	"nodes":[{
		"name":"Polygon Reduction",
		"children":[1]
	},
	{
		"name":"빅곰이 모델링",
		"children":[2,
		3,
		4,
		5]
	},
	{
		"name":"hat",
		"translation":[0.006370896007865667,
		297.24127197265627,
		4.787670612335205],
		"rotation":[0.0,
		0.0,
		0.0,
		-1.0],
		"scale":[1.0,
		1.0,
		1.0],
		"children":[6,
		7]
	},
	{
		"name":"face",
		"mesh":0,
		"translation":[0.0,
		251.12025451660157,
		-57.349056243896487],
		"rotation":[0.0,
		0.0,
		0.0,
		-1.0],
		"scale":[1.0,
		1.0,
		1.0]
	},
	{
		"name":"vest",
		"children":[8,
		9]
	},
	{
		"name":"body",
		"children":[10,
		11]
	},
	{
		"name":"hat-Mat",
		"mesh":1
	},
	{
		"name":"hat-white",
		"mesh":2
	},
	{
		"name":"vest-white",
		"mesh":3
	},
	{
		"name":"vest-white",
		"mesh":4
	},
	{
		"name":"body-body2",
		"mesh":5
	},
	{
		"name":"body-body",
		"mesh":6
	}],
	"meshes":[{
		"name":"face",
		"primitives":[{
			"attributes":{
				"POSITION":1,
				"NORMAL":2,
				"TEXCOORD_0":3
			},
			"indices":0,
			"material":0
		}]
	},
	{
		"name":"hat-Mat",
		"primitives":[{
			"attributes":{
				"POSITION":5,
				"NORMAL":6,
				"TEXCOORD_0":7
			},
			"indices":4,
			"material":1
		}]
	},
	{
		"name":"hat-white",
		"primitives":[{
			"attributes":{
				"POSITION":9,
				"NORMAL":10,
				"TEXCOORD_0":11
			},
			"indices":8,
			"material":2
		}]
	},
	{
		"name":"vest-white",
		"primitives":[{
			"attributes":{
				"POSITION":13,
				"NORMAL":14,
				"TEXCOORD_0":15
			},
			"indices":12,
			"material":3
		}]
	},
	{
		"name":"vest-white",
		"primitives":[{
			"attributes":{
				"POSITION":17,
				"NORMAL":18,
				"TEXCOORD_0":19
			},
			"indices":16,
			"material":2
		}]
	},
	{
		"name":"body-body2",
		"primitives":[{
			"attributes":{
				"POSITION":21,
				"NORMAL":22,
				"TEXCOORD_0":23
			},
			"indices":20,
			"material":4
		}]
	},
	{
		"name":"body-body",
		"primitives":[{
			"attributes":{
				"POSITION":25,
				"NORMAL":26,
				"TEXCOORD_0":27
			},
			"indices":24,
			"material":5
		}]
	}],
	"accessors":[{
		"bufferView":0,
		"type":"SCALAR",
		"componentType":5123,
		"count":2028,
		"byteOffset":0,
		"min":[0],
		"max":[391]
	},
	{
		"bufferView":1,
		"type":"VEC3",
		"componentType":5126,
		"count":392,
		"byteOffset":0,
		"min":[-19.203662872314454,
		-14.740836143493653,
		-5.099838733673096],
		"max":[19.203662872314454,
		10.082306861877442,
		2.023416757583618]
	},
	{
		"bufferView":1,
		"type":"VEC3",
		"componentType":5126,
		"count":392,
		"byteOffset":12,
		"min":[-0.9999373555183411,
		-0.9928426742553711,
		-0.9978973269462586],
		"max":[0.978817880153656,
		0.9992186427116394,
		0.9987751841545105]
	},
	{
		"bufferView":1,
		"type":"VEC2",
		"componentType":5126,
		"count":392,
		"byteOffset":24,
		"min":[0.0,
		0.0],
		"max":[1.0,
		1.0]
	},
	{
		"bufferView":2,
		"type":"SCALAR",
		"componentType":5123,
		"count":8304,
		"byteOffset":0,
		"min":[0],
		"max":[1684]
	},
	{
		"bufferView":3,
		"type":"VEC3",
		"componentType":5126,
		"count":1685,
		"byteOffset":0,
		"min":[-38.83882141113281,
		-3.2550129890441896,
		-52.702754974365237],
		"max":[39.04851150512695,
		38.42988204956055,
		39.366886138916019]
	},
	{
		"bufferView":3,
		"type":"VEC3",
		"componentType":5126,
		"count":1685,
		"byteOffset":12,
		"min":[-0.999502956867218,
		-0.9987635612487793,
		-0.9989416599273682],
		"max":[0.9959044456481934,
		0.9998816847801209,
		0.9995437860488892]
	},
	{
		"bufferView":3,
		"type":"VEC2",
		"componentType":5126,
		"count":1685,
		"byteOffset":24,
		"min":[0.0,
		0.0],
		"max":[1.0,
		1.0]
	},
	{
		"bufferView":4,
		"type":"SCALAR",
		"componentType":5123,
		"count":1644,
		"byteOffset":0,
		"min":[0],
		"max":[708]
	},
	{
		"bufferView":5,
		"type":"VEC3",
		"componentType":5126,
		"count":709,
		"byteOffset":0,
		"min":[-24.37898826599121,
		19.813457489013673,
		-36.02304458618164],
		"max":[-4.321024417877197,
		31.67119026184082,
		-21.549055099487306]
	},
	{
		"bufferView":5,
		"type":"VEC3",
		"componentType":5126,
		"count":709,
		"byteOffset":12,
		"min":[-0.9527643322944641,
		-0.8863429427146912,
		-0.8581698536872864],
		"max":[0.9936296939849854,
		0.8977739810943604,
		0.9280894994735718]
	},
	{
		"bufferView":5,
		"type":"VEC2",
		"componentType":5126,
		"count":709,
		"byteOffset":24,
		"min":[0.0006380081176757813,
		0.0028423890471458437],
		"max":[0.9993619918823242,
		0.998244047164917]
	},
	{
		"bufferView":6,
		"type":"SCALAR",
		"componentType":5123,
		"count":36978,
		"byteOffset":0,
		"min":[0],
		"max":[6391]
	},
	{
		"bufferView":7,
		"type":"VEC3",
		"componentType":5126,
		"count":6392,
		"byteOffset":0,
		"min":[-93.01502990722656,
		88.80508422851563,
		-81.30899810791016],
		"max":[93.02470397949219,
		213.72645568847657,
		77.22846984863281]
	},
	{
		"bufferView":7,
		"type":"VEC3",
		"componentType":5126,
		"count":6392,
		"byteOffset":12,
		"min":[-0.9999193549156189,
		-0.9999969005584717,
		-0.9999118447303772],
		"max":[0.9999182820320129,
		0.9998903870582581,
		0.9997443556785584]
	},
	{
		"bufferView":7,
		"type":"VEC2",
		"componentType":5126,
		"count":6392,
		"byteOffset":24,
		"min":[0.0029039126820862295,
		0.19648894667625428],
		"max":[0.9970376491546631,
		0.7441074848175049]
	},
	{
		"bufferView":8,
		"type":"SCALAR",
		"componentType":5123,
		"count":30165,
		"byteOffset":0,
		"min":[0],
		"max":[10522]
	},
	{
		"bufferView":9,
		"type":"VEC3",
		"componentType":5126,
		"count":10523,
		"byteOffset":0,
		"min":[-54.83838653564453,
		127.10922241210938,
		-53.55078125],
		"max":[40.18703842163086,
		191.4093017578125,
		76.960693359375]
	},
	{
		"bufferView":9,
		"type":"VEC3",
		"componentType":5126,
		"count":10523,
		"byteOffset":12,
		"min":[-0.9999608397483826,
		-0.9999979734420776,
		-0.9995078444480896],
		"max":[0.9999923706054688,
		0.9999979734420776,
		0.9999856948852539]
	},
	{
		"bufferView":9,
		"type":"VEC2",
		"componentType":5126,
		"count":10523,
		"byteOffset":24,
		"min":[-2.384185791015625e-7,
		0.0],
		"max":[1.0,
		1.0]
	},
	{
		"bufferView":10,
		"type":"SCALAR",
		"componentType":5123,
		"count":360,
		"byteOffset":0,
		"min":[0],
		"max":[77]
	},
	{
		"bufferView":11,
		"type":"VEC3",
		"componentType":5126,
		"count":78,
		"byteOffset":0,
		"min":[-65.07002258300781,
		280.6514892578125,
		-18.162660598754884],
		"max":[64.98165893554688,
		299.4499816894531,
		-11.4038667678833]
	},
	{
		"bufferView":11,
		"type":"VEC3",
		"componentType":5126,
		"count":78,
		"byteOffset":12,
		"min":[-0.7914096117019653,
		-0.5014463663101196,
		-0.9955214858055115],
		"max":[0.7804715633392334,
		0.7791560292243958,
		-0.5337010622024536]
	},
	{
		"bufferView":11,
		"type":"VEC2",
		"componentType":5126,
		"count":78,
		"byteOffset":24,
		"min":[0.02640550024807453,
		0.10830800235271454],
		"max":[0.47378498315811159,
		0.15514248609542848]
	},
	{
		"bufferView":12,
		"type":"SCALAR",
		"componentType":5123,
		"count":34536,
		"byteOffset":0,
		"min":[0],
		"max":[5774]
	},
	{
		"bufferView":13,
		"type":"VEC3",
		"componentType":5126,
		"count":5775,
		"byteOffset":0,
		"min":[-127.41787719726563,
		-0.4368631839752197,
		-66.26204681396485],
		"max":[127.4256362915039,
		321.3092041015625,
		62.321990966796878]
	},
	{
		"bufferView":13,
		"type":"VEC3",
		"componentType":5126,
		"count":5775,
		"byteOffset":12,
		"min":[-0.9998905658721924,
		-0.9999838471412659,
		-0.9998721480369568],
		"max":[0.9997683167457581,
		0.9991986155509949,
		0.9999880194664002]
	},
	{
		"bufferView":13,
		"type":"VEC2",
		"componentType":5126,
		"count":5775,
		"byteOffset":24,
		"min":[0.00015999999595806003,
		0.0015930000226944686],
		"max":[0.999382495880127,
		0.9942349195480347]
	}],
	"bufferViews":[{
		"buffer":0,
		"byteOffset":0,
		"byteLength":4056,
		"target":34963
	},
	{
		"buffer":0,
		"byteOffset":4056,
		"byteLength":12544,
		"target":34962,
		"byteStride":32
	},
	{
		"buffer":1,
		"byteOffset":0,
		"byteLength":16608,
		"target":34963
	},
	{
		"buffer":1,
		"byteOffset":16608,
		"byteLength":53920,
		"target":34962,
		"byteStride":32
	},
	{
		"buffer":2,
		"byteOffset":0,
		"byteLength":3288,
		"target":34963
	},
	{
		"buffer":2,
		"byteOffset":3288,
		"byteLength":22688,
		"target":34962,
		"byteStride":32
	},
	{
		"buffer":3,
		"byteOffset":0,
		"byteLength":73956,
		"target":34963
	},
	{
		"buffer":3,
		"byteOffset":73956,
		"byteLength":204544,
		"target":34962,
		"byteStride":32
	},
	{
		"buffer":4,
		"byteOffset":0,
		"byteLength":60330,
		"target":34963
	},
	{
		"buffer":4,
		"byteOffset":60332,
		"byteLength":336736,
		"target":34962,
		"byteStride":32
	},
	{
		"buffer":5,
		"byteOffset":0,
		"byteLength":720,
		"target":34963
	},
	{
		"buffer":5,
		"byteOffset":720,
		"byteLength":2496,
		"target":34962,
		"byteStride":32
	},
	{
		"buffer":6,
		"byteOffset":0,
		"byteLength":69072,
		"target":34963
	},
	{
		"buffer":6,
		"byteOffset":69072,
		"byteLength":184800,
		"target":34962,
		"byteStride":32
	}],
	"buffers":[{
		"uri":"data:application/octet-stream;base64,",
		"byteLength":16600
	},
	{
		"uri":"data:application/octet-stream;base64,",
		"byteLength":70528
	},
	{
		"uri":"data:application/octet-stream;base64,",
		"byteLength":25976
	},
	{
		"uri":"data:application/octet-stream;base64,",
		"byteLength":278500
	},
	{
		"uri":"data:application/octet-stream;base64,",
		"byteLength":397068
	},
	{
		"uri":"data:application/octet-stream;base64,",
		"byteLength":3216
	},
	{
		"uri":"data:application/octet-stream;base64,",
		"byteLength":253872
	}],
	"materials":[{
		"pbrMetallicRoughness":{
			"baseColorFactor":[0.0,
			0.0,
			0.0,
			1.0],
			"metallicFactor":0.0,
			"roughnessFactor":0.5
		},
		"emissiveFactor":[0.0,
		0.0,
		0.0],
		"alphaMode":"OPAQUE",
		"doubleSided":false,
		"name":"black"
	},
	{
		"pbrMetallicRoughness":{
			"baseColorFactor":[0.7490196078431373,
			0.0666666666666667,
			0.1019607843137251,
			1.0],
			"metallicFactor":0.0,
			"roughnessFactor":0.5
		},
		"emissiveFactor":[0.0,
		0.0,
		0.0],
		"alphaMode":"OPAQUE",
		"doubleSided":false,
		"name":"Mat"
	},
	{
		"pbrMetallicRoughness":{
			"baseColorFactor":[1.0,
			1.0,
			1.0,
			1.0],
			"metallicFactor":0.0,
			"roughnessFactor":0.5
		},
		"emissiveFactor":[0.0,
		0.0,
		0.0],
		"alphaMode":"OPAQUE",
		"doubleSided":false,
		"name":"white"
	},
	{
		"pbrMetallicRoughness":{
			"baseColorFactor":[0.7490196078431373,
			0.0666666666666667,
			0.1019607843137251,
			1.0],
			"metallicFactor":0.0,
			"roughnessFactor":0.5
		},
		"emissiveFactor":[0.0,
		0.0,
		0.0],
		"alphaMode":"OPAQUE",
		"doubleSided":false,
		"name":"white"
	},
	{
		"pbrMetallicRoughness":{
			"baseColorFactor":[0.7686274647712708,
			0.5647059082984924,
			0.3294117748737335,
			1.0],
			"metallicFactor":1.0,
			"roughnessFactor":0.5
		},
		"emissiveFactor":[0.0,
		0.0,
		0.0],
		"alphaMode":"OPAQUE",
		"doubleSided":false,
		"name":"body2"
	},
	{
		"pbrMetallicRoughness":{
			"baseColorFactor":[0.9725490212440491,
			0.8627451062202454,
			0.7058823704719544,
			1.0],
			"metallicFactor":1.0,
			"roughnessFactor":0.5
		},
		"emissiveFactor":[0.0,
		0.0,
		0.0],
		"alphaMode":"OPAQUE",
		"doubleSided":false,
		"name":"body"
	}]
}